<svg width="106" height="112" viewBox="0 0 106 112" fill="none" xmlns="http://www.w3.org/2000/svg">
<path fill-rule="evenodd" clip-rule="evenodd" d="M5.17245 31.0088L53 5.65891L100.828 31.0088V80.9912L53 106.341L5.17245 80.9912V31.0088ZM53 0L105.828 28V84L53 112L0.172451 84V28L53 0ZM32.03 43.894C31.3247 42.3913 30.696 41.134 30.144 40.122H23.29C22.9833 42.238 22.692 44.6147 22.416 47.252C22.1707 49.8587 21.9407 52.588 21.726 55.44C21.542 58.2613 21.358 61.098 21.174 63.95C21.0207 66.802 20.8827 69.4853 20.76 72H27.752C27.844 68.9027 27.9667 65.5293 28.12 61.88C28.2733 58.2307 28.5033 54.5507 28.81 50.84C29.362 52.128 29.9753 53.554 30.65 55.118C31.3247 56.682 31.984 58.246 32.628 59.81C33.3027 61.374 33.9467 62.8767 34.56 64.318C35.1733 65.7287 35.6947 66.94 36.124 67.952H41.138C41.5673 66.94 42.0887 65.7287 42.702 64.318C43.3153 62.8767 43.944 61.374 44.588 59.81L46.612 55.118C47.2867 53.554 47.9 52.128 48.452 50.84C48.7587 54.5507 48.9887 58.2307 49.142 61.88C49.2953 65.5293 49.418 68.9027 49.51 72H56.502C56.3793 69.4853 56.226 66.802 56.042 63.95C55.8887 61.098 55.7047 58.2613 55.49 55.44C55.306 52.588 55.076 49.8587 54.8 47.252C54.5547 44.6147 54.2787 42.238 53.972 40.122H47.44C46.888 41.134 46.244 42.3913 45.508 43.894C44.8027 45.366 44.0513 46.976 43.254 48.724C42.4873 50.4413 41.7207 52.2047 40.954 54.014C40.1873 55.8233 39.4667 57.5253 38.792 59.12C38.1173 57.5253 37.3967 55.8233 36.63 54.014C35.8633 52.2047 35.0813 50.4413 34.284 48.724C33.5173 46.976 32.766 45.366 32.03 43.894ZM76.4412 66.296C75.7972 66.4493 74.9692 66.526 73.9572 66.526C71.9332 66.526 70.2159 66.3267 68.8052 65.928C67.4252 65.4987 66.2599 65.0233 65.3092 64.502L63.2852 70.206C63.7145 70.4513 64.2359 70.712 64.8492 70.988C65.4932 71.264 66.2445 71.5247 67.1032 71.77C67.9925 72.0153 69.0045 72.2147 70.1392 72.368C71.2739 72.552 72.5465 72.644 73.9572 72.644C78.1585 72.644 81.3019 71.8313 83.3872 70.206C85.4725 68.55 86.5152 66.2347 86.5152 63.26C86.5152 61.7267 86.3159 60.4233 85.9172 59.35C85.5185 58.2767 84.9052 57.3413 84.0772 56.544C83.2799 55.7467 82.2679 55.0567 81.0412 54.474C79.8145 53.8607 78.3732 53.2473 76.7172 52.634C75.9199 52.358 75.1839 52.0973 74.5092 51.852C73.8652 51.576 73.2825 51.2847 72.7612 50.978C72.2705 50.6407 71.8872 50.2727 71.6112 49.874C71.3352 49.4753 71.1972 48.9847 71.1972 48.402C71.1972 47.4207 71.5652 46.7 72.3012 46.24C73.0679 45.7493 74.3099 45.504 76.0272 45.504C77.5605 45.504 78.8639 45.688 79.9372 46.056C81.0412 46.3933 82.0379 46.792 82.9272 47.252L84.9972 41.594C83.9852 41.042 82.6972 40.536 81.1332 40.076C79.5692 39.616 77.7139 39.386 75.5672 39.386C73.7579 39.386 72.1325 39.616 70.6912 40.076C69.2499 40.5053 68.0232 41.134 67.0112 41.962C65.9992 42.79 65.2172 43.802 64.6652 44.998C64.1132 46.1633 63.8372 47.482 63.8372 48.954C63.8372 50.426 64.0979 51.6833 64.6192 52.726C65.1405 53.738 65.8152 54.612 66.6432 55.348C67.4712 56.0533 68.4065 56.6513 69.4492 57.142C70.4919 57.602 71.5345 58.016 72.5772 58.384C74.9692 59.1813 76.6559 59.9327 77.6372 60.638C78.6185 61.3127 79.1092 62.1713 79.1092 63.214C79.1092 63.7047 79.0325 64.1493 78.8792 64.548C78.7259 64.9467 78.4499 65.2993 78.0512 65.606C77.6525 65.882 77.1159 66.112 76.4412 66.296Z" fill="#00096b"/>
</svg>
